<?xml version="1.0" encoding="UTF-8" standalone="no"?><!-- Generator: Gravit.io -->
<svg xmlns="http://www.w3.org/2000/svg" style="isolation:isolate"
     viewBox="128.758 52.571 174.511 172.671" width="174.511pt" height="172.671pt">
  <g>
    <g>
      <g>
        <path
          d=" M 164.4 198.3 C 168.1 197.6 171.6 199.9 172.4 203.6 C 173.3 207.1 170.8 210.8 167.1 211.6 C 163.6 212.3 160 210 159.1 206.3 C 158.4 202.5 160.7 199 164.4 198.3 L 164.4 198.3 L 164.4 198.3 Z "
          fill-rule="evenodd" fill="rgb(255,255,255)"/>
        <path
          d=" M 187.4 206.8 C 182.6 207 178.7 210.9 178.7 215.8 C 178.7 220.9 182.8 225.2 187.7 225.2 C 192.8 225.2 197.1 221.1 197.1 216 C 197.3 212.1 194.8 208.8 191.3 207.3 L 192.5 199.3 C 198 198.4 202.2 193.6 202.4 187.8 C 202.4 181.3 197.3 176 190.7 175.8 C 185 175.8 180.4 179.5 179 184.8 L 159.9 183.2 C 159.4 180.2 157.4 177.5 154.4 176.3 C 149.8 174.7 144.9 177 143.1 181.4 C 141.5 186 143.8 190.9 148.2 192.5 C 152.8 194.3 157.7 192 159.5 187.4 L 159.5 187.2 L 178.6 188.6 C 179.1 193.9 183.2 198.3 188.3 199.2 L 187.4 206.8 L 187.4 206.8 Z "
          fill-rule="evenodd" fill="rgb(255,255,255)"/>
        <path
          d=" M 144.1 150.4 C 139.2 148.5 133.5 150.8 131.6 155.9 C 129.7 160.8 132 166.5 136.9 168.4 C 142 170.3 147.5 167.9 149.6 162.9 C 151.5 158 149 152.3 144.1 150.4 L 144.1 150.4 L 144.1 150.4 Z "
          fill-rule="evenodd" fill="rgb(255,255,255)"/>
        <path
          d=" M 147.3 112.2 C 138.8 110.4 130.7 115.9 129.1 124.2 C 127.3 132.5 132.8 140.6 141.1 142.4 C 145.5 143.3 149.9 142 153.3 139.6 L 165.5 152.1 C 165 152.8 164.6 153.5 164.3 154.2 C 162 159.7 164.8 166 170.3 168.2 C 175.8 170.5 182 167.7 184.1 162.2 C 186.4 156.7 183.7 150.5 178.3 148.4 C 174.8 147 171.2 147.5 168.4 149.3 L 156.2 136.8 C 157.8 135 158.9 132.9 159.4 130.4 C 160.9 122.1 155.6 114 147.3 112.2 L 147.3 112.2 L 147.3 112.2 Z  M 142.7 119.8 C 146.8 118.9 150.8 121.6 151.5 125.8 C 152.4 129.9 149.7 133.9 145.7 134.6 C 141.6 135.5 137.6 132.8 136.7 128.8 C 135.8 124.8 138.4 120.7 142.7 119.8 L 142.7 119.8 L 142.7 119.8 Z "
          fill-rule="evenodd" fill="rgb(255,255,255)"/>
        <path
          d=" M 153.6 84.8 C 149 83.9 144.6 86.9 143.5 91.3 C 142.6 95.9 145.6 100.5 150.2 101.4 C 153 101.9 155.7 101 157.6 99.3 L 165.4 104.2 C 165.2 104.7 165 105.3 164.9 106 C 163.8 111.7 167.4 117.1 173 118.2 L 173.4 118.4 L 173.6 125.1 C 171.3 126 169.5 127.8 169 130.2 C 168.3 133.9 170.6 137.4 174.3 138.2 C 178 138.9 181.5 136.6 182.3 132.9 C 183 129.5 180.9 126 177.5 125.1 L 177.3 118.2 C 181.4 117.3 184.5 114.3 185.4 110.1 C 185.4 109.6 185.6 108.9 185.6 108.2 L 191.4 107.3 C 192.3 109.1 193.9 110.3 196 110.8 C 199.7 111.5 203.2 109 204 105.5 C 204.7 101.8 202.4 98.3 198.7 97.5 C 195.2 96.6 191.5 99.1 190.7 102.6 C 190.7 102.8 190.7 103 190.7 103.1 L 184.9 104.2 C 182.1 97.1 172.9 95.4 167.6 100.8 L 160 96 C 160 95.6 160.2 95.3 160.2 94.9 C 161.1 90.3 158.2 85.7 153.6 84.8 L 153.6 84.8 L 153.6 84.8 Z "
          fill-rule="evenodd" fill="rgb(255,255,255)"/>
        <path
          d=" M 187.2 59.9 C 179.8 58.3 172.4 63.1 170.9 70.7 C 169.3 78.1 174.1 85.5 181.7 87.1 C 189.1 88.5 196.5 83.7 198.1 76.1 C 199.6 68.7 194.8 61.3 187.2 59.9 L 187.2 59.9 L 187.2 59.9 Z "
          fill-rule="evenodd" fill="rgb(255,255,255)"/>
        <path
          d=" M 221.3 90.3 C 224.3 90.8 227 93.1 227.7 96.3 C 228.9 100.5 226.3 105.1 222 106.2 C 217.6 107.4 213.2 104.8 211.9 100.4 C 210.8 96.3 213.1 92.1 217.2 90.7 L 216 72.7 L 215.8 72.7 C 210.1 72 206.4 66.9 207.1 61.2 C 208 55.7 213.1 51.8 218.6 52.7 C 224.3 53.4 228 58.5 227.3 64.2 C 226.6 68.3 223.8 71.4 219.9 72.5 L 221.3 90.3 L 221.3 90.3 Z "
          fill-rule="evenodd" fill="rgb(255,255,255)"/>
        <path
          d=" M 242.2 81.8 C 245.9 81.1 249.4 83.4 250.2 87.1 C 250.9 90.8 248.6 94.3 244.9 95.1 C 241.4 95.8 237.7 93.5 236.9 89.8 C 236.2 86.1 238.5 82.5 242.2 81.8 L 242.2 81.8 L 242.2 81.8 Z "
          fill-rule="evenodd" fill="rgb(255,255,255)"/>
        <path
          d=" M 247.8 102.8 C 250.8 102.1 254 103.2 256.1 105.3 L 263.9 100 C 263.5 99.1 263.2 98.2 263 97.2 C 262.1 93.3 263.2 89.4 265.5 86.4 L 256.5 76.9 C 255.8 77.3 254.9 77.6 254 77.8 C 249.4 78.7 245 75.9 244.1 71.3 C 243 66.7 246 62.1 250.6 61.2 C 255.2 60.3 259.6 63.3 260.5 67.7 C 261 70 260.5 72.3 259.4 74.1 L 268.2 83.8 C 269.6 82.7 271.4 82 273.1 81.7 C 280.2 80.3 287.1 84.9 288.5 92 C 290.1 99.1 285.5 106.1 278.2 107.6 C 273.6 108.5 269 106.9 266 103.5 L 258.2 108.8 C 258.4 109.2 258.6 109.7 258.6 110.2 C 259.7 115.3 256.5 120.3 251.4 121.3 C 246.3 122.4 241.3 119 240.3 114.1 C 239.4 108.9 242.7 103.9 247.8 102.8 L 247.8 102.8 L 247.8 102.8 Z  M 270.1 96 L 270.1 96 L 270.1 96.2 L 270.1 96.2 L 270.1 96.2 L 270.1 96.2 L 270.1 96.4 L 270.1 96.4 L 270.1 96.4 L 270.1 96.6 L 270.1 96.6 L 270.1 96.6 L 270.1 96.6 L 270.3 96.8 L 270.3 96.8 L 270.3 96.8 L 270.3 96.8 L 270.3 97 L 270.3 97 L 270.3 97 L 270.3 97 L 270.3 97 L 270.3 97 L 270.5 97 L 270.5 97 L 270.5 97.2 L 270.5 97.2 L 270.5 97.2 L 270.5 97.2 L 270.5 97.4 L 270.5 97.4 L 270.5 97.4 L 270.7 97.4 L 270.7 97.4 L 270.7 97.6 L 270.7 97.6 L 270.7 97.6 L 270.7 97.6 L 270.7 97.6 L 270.9 97.8 L 270.9 97.8 L 270.9 97.8 L 270.9 97.8 L 270.9 98 L 270.9 98 L 270.9 98 L 270.9 98 L 271.1 98 L 271.1 98.2 L 271.1 98.2 L 271.1 98.2 L 271.1 98.2 L 271.1 98.2 L 271.1 98.4 L 271.3 98.4 L 271.3 98.4 L 271.3 98.4 L 271.3 98.4 L 271.3 98.6 L 271.3 98.6 L 271.3 98.6 L 271.5 98.6 L 271.5 98.6 L 271.5 98.6 L 271.5 98.8 L 271.5 98.8 L 271.7 98.8 L 271.7 98.8 L 271.7 98.8 L 271.7 99 L 271.7 99 L 271.7 99 L 271.9 99 L 271.9 99 L 271.9 99 L 271.9 99 L 271.9 99 L 271.9 99 L 272.1 99 L 272.1 99 L 272.1 99 L 272.1 99.2 L 272.1 99.2 L 272.1 99.2 L 272.3 99.2 L 272.3 99.2 L 272.3 99.2 L 272.3 99.4 L 272.5 99.4 L 272.5 99.4 L 272.5 99.4 L 272.5 99.4 C 273.9 100.5 275.5 100.8 277.3 100.5 C 280.7 100 282.6 96.8 282.1 93.4 C 281.4 90.2 278.2 88.1 275 88.8 C 274.5 88.8 274.1 89 273.8 89.2 L 273.6 89.2 L 273.6 89.2 L 273.6 89.2 L 273.6 89.2 L 273.4 89.4 L 273.4 89.4 L 273.4 89.4 L 273.4 89.4 L 273.2 89.4 L 273.2 89.4 L 273.2 89.4 L 273.2 89.4 L 273.2 89.6 L 273 89.6 L 273 89.6 L 273 89.6 L 273 89.6 L 273 89.6 L 272.8 89.6 L 272.8 89.6 L 272.8 89.8 L 272.8 89.8 L 272.6 89.8 L 272.6 89.8 L 272.6 89.8 L 272.6 89.8 L 272.6 89.8 L 272.4 90 L 272.4 90 L 272.4 90 L 272.4 90 L 272.4 90 L 272.2 90 L 272.2 90 L 272.2 90.2 L 272.2 90.2 L 272.2 90.2 L 272.2 90.2 L 272 90.2 L 272 90.4 L 272 90.4 L 272 90.4 L 271.8 90.4 L 271.8 90.4 L 271.8 90.4 L 271.8 90.6 L 271.8 90.6 L 271.8 90.6 L 271.6 90.6 L 271.6 90.6 L 271.6 90.6 L 271.6 90.8 L 271.6 90.8 L 271.6 90.8 L 271.4 90.8 L 271.4 90.8 L 271.4 90.8 L 271.4 91 L 271.4 91 L 271.4 91 L 271.2 91 L 271.2 91 L 271.2 91.2 L 271.2 91.2 L 271.2 91.2 L 271.2 91.2 L 271.2 91.2 L 271 91 L 271 91 L 271 91 L 271 91 L 271 91 L 271 91.2 L 271 91.2 L 270.8 91.2 L 270.8 91.2 L 270.8 91.4 L 270.8 91.4 L 270.8 91.4 L 270.8 91.4 L 270.6 91.4 L 270.6 91.6 L 270.6 91.6 L 270.6 91.6 L 270.6 91.6 L 270.6 91.6 L 270.6 91.8 L 270.6 91.8 L 270.4 91.8 L 270.4 91.8 C 269.9 93 269.7 94.5 269.9 95.9 L 270.1 96 L 270.1 96 Z "
          fill-rule="evenodd" fill="rgb(255,255,255)"/>
        <path
          d=" M 256 126 C 259.7 125.3 263.2 127.6 264 131.3 C 264.9 135 262.4 138.5 258.7 139.3 C 255.2 140.2 251.6 137.7 250.7 134 C 250 130.4 252.3 126.9 256 126 L 256 126 L 256 126 Z "
          fill-rule="evenodd" fill="rgb(255,255,255)"/>
        <path
          d=" M 294.5 150.4 C 298.4 151.1 301.9 154.3 302.8 158.5 C 303.9 164 300.3 169.3 294.8 170.3 C 289.3 171.5 283.8 168 282.8 162.5 C 281.7 157 285.1 151.7 290.4 150.5 L 289.9 135.8 C 285 135.1 280.9 131.4 279.8 126.4 C 278.6 119.9 282.6 113.7 289 112.4 C 295.5 111 301.7 115.2 303 121.6 C 304.4 128 300.2 134.1 293.8 135.6 L 294.5 150.4 L 294.5 150.4 Z "
          fill-rule="evenodd" fill="rgb(255,255,255)"/>
        <path
          d=" M 274.5 181.7 C 280.2 180.6 285.6 184.2 286.7 189.8 C 287.9 195.5 284.2 200.9 278.6 202.2 C 272.9 203.3 267.5 199.7 266.4 194.1 C 265.7 191.1 266.4 188.4 268 186.1 L 259.7 177.8 C 258.5 178.5 257 179.2 255.6 179.4 C 249.6 180.6 243.8 176.9 242.5 170.9 C 241.4 164.9 245.2 159.1 251.2 158 C 253.9 157.3 256.7 157.8 259 159.2 L 264.3 152.8 C 263.6 151.7 262.9 150.7 262.7 149.3 C 261.6 144.5 264.8 139.8 269.6 138.9 C 274.4 137.8 279.1 141 280.2 145.8 C 281.1 150.6 278.1 155.3 273.1 156.4 C 271.2 156.8 269 156.4 267.3 155.5 L 262 161.7 C 263.1 163.1 263.8 164.7 264.1 166.5 C 264.8 169.5 264.1 172.5 262.5 175 L 270.8 183.3 C 271.9 182.6 273.1 182 274.5 181.7 L 274.5 181.7 L 274.5 181.7 Z  M 274.9 187.3 L 274.9 187.5 L 274.5 187.5 L 274.5 187.5 L 274.5 187.5 L 274.5 187.5 L 274.5 187.7 L 274.3 187.7 L 274.1 187.7 L 274.1 187.7 L 274.1 187.7 L 274.1 187.7 L 274.1 187.9 L 274 187.9 L 274 187.9 L 274 187.9 L 274 187.9 L 274 187.9 L 274 187.9 L 273.8 188.1 L 273.8 188.1 L 273.8 188.1 L 273.6 188.1 L 273.6 188.3 L 273.6 188.3 L 273.4 188.3 L 273.4 188.3 L 273.4 188.3 L 273.4 188.3 L 273.4 188.5 L 273.4 188.5 L 273.2 188.5 L 273.2 188.5 L 273.2 188.5 L 273.2 188.5 L 273.2 188.5 L 273.2 188.7 L 273 188.7 L 273 188.7 L 273 188.7 L 273 188.7 L 273 188.7 L 273 188.9 L 272.8 188.9 L 272.8 188.9 L 272.8 188.9 L 272.8 188.9 L 272.8 188.9 L 272.8 189.1 L 272.6 189.1 L 272.6 189.1 L 272.6 189.1 L 272.6 189.1 L 272.6 189.1 L 272.6 189.3 L 272.6 189.3 L 272.6 189.3 L 272.4 189.3 L 272.4 189.3 L 272.4 189.5 L 272.4 189.5 L 272.4 189.5 L 272.4 189.5 L 272.4 189.5 L 272.4 189.7 L 272.2 189.7 L 272.2 189.7 L 272.2 189.7 L 272.2 189.7 L 272.2 189.9 L 272.2 189.9 L 272.2 189.9 L 272.2 189.9 L 272 189.9 L 272 190.1 L 272 190.1 L 272 190.1 L 272 190.1 L 272 190.1 L 272 190.3 L 272 190.3 L 272 190.3 L 272 190.3 L 272 190.5 L 271.8 190.5 L 271.8 190.5 L 271.8 190.5 L 271.8 190.5 C 271.4 191.4 271.4 192.3 271.6 193.2 C 272.1 195.9 274.6 197.4 277.3 196.9 C 280 196.4 281.5 193.9 281 191.2 C 280.5 188.7 278 187 275.3 187.5 C 275.4 187.3 275.1 187.3 274.9 187.3 L 274.9 187.3 L 274.9 187.3 Z "
          fill-rule="evenodd" fill="rgb(255,255,255)"/>
        <path
          d=" M 235.6 180.3 C 240.9 179.8 245.3 183.7 245.9 188.8 C 246.3 192.5 244.3 196 241.3 197.8 L 243.4 205 L 243.6 205 C 249.1 204.5 254 208.5 254.6 214.2 C 255.1 219.7 251.1 224.6 245.6 225.2 C 239.9 225.7 235 221.7 234.5 216 C 234.1 211.9 236.3 208 239.8 206.3 L 237.5 199.1 C 232.4 199.5 227.8 195.7 227.2 190.6 C 226.8 185.4 230.5 180.8 235.6 180.3 L 235.6 180.3 L 235.6 180.3 Z "
          fill-rule="evenodd" fill="rgb(255,255,255)"/>
      </g>
    </g>
  </g>
</svg>
